<svg width="167" height="108" viewBox="0 0 167 108" fill="none" xmlns="http://www.w3.org/2000/svg">
<path d="M159.626 59.4C156.156 66.744 153.987 69.768 151.601 69.768C150.3 69.768 148.131 68.472 151.384 58.536L153.77 51.192C154.421 49.248 154.638 47.952 154.638 46.872C154.204 41.688 147.48 37.8 143.143 34.776C141.191 33.48 140.757 31.968 141.408 30.024L142.058 28.296C142.709 26.352 142.275 25.056 140.323 23.976L139.673 23.544C138.155 22.68 136.203 22.68 134.901 23.76C132.082 25.704 129.913 28.944 130.13 32.4C130.13 33.48 130.564 34.344 131.214 35.208C132.082 36.936 130.13 40.392 129.045 42.984C127.31 47.088 125.792 50.976 124.057 53.784C117.768 64.8 108.875 69.768 103.019 69.336C95.8623 68.904 94.3441 65.448 94.1273 62.424C93.9104 60.48 95.2117 59.4 97.1636 59.616C110.393 60.48 116.683 56.376 119.936 48.384C124.708 36.504 116.9 29.592 107.357 29.592C93.9104 29.592 86.1026 41.472 83.2831 52.488C77.861 62.856 70.9208 68.904 67.6675 68.904C66.8 68.904 64.6312 68.256 67.8844 58.32L83.2831 17.28C84.1506 14.904 83.0662 13.608 80.4636 13.608H76.126C73.0896 13.608 71.5714 14.688 70.7039 17.28L55.9558 55.728C50.5338 71.496 56.3896 77.328 63.9805 77.328C71.5714 77.328 77.2104 73.008 82.1987 65.664C83.7169 72.576 89.3558 77.328 99.7662 77.328C116.249 77.328 125.575 66.528 131.214 55.296C132.949 51.624 134.901 47.736 136.419 43.632C137.287 41.688 138.588 41.472 140.323 42.984C141.625 44.064 142.492 45.144 142.492 46.224C142.492 46.656 142.492 47.52 141.842 49.248L139.456 56.592C134.251 71.928 140.757 77.112 147.697 77.112C157.023 77.112 161.361 70.632 165.265 62.424C166.783 59.832 161.361 55.944 159.626 59.4ZM96.7298 49.896C98.4649 46.008 101.935 39.528 106.923 39.528C109.96 39.528 109.96 41.904 108.442 45.576C106.923 49.248 104.971 52.92 98.8987 52.92C96.9467 52.704 96.0792 51.408 96.7298 49.896Z" fill="white"/>
<path d="M65.9324 9.07204C64.1974 7.34404 61.5948 6.26404 58.3415 6.26404C50.5337 6.26404 44.8948 11.016 40.3402 24.408L39.0389 27.864L37.7376 31.32C36.8701 34.128 35.3519 35.208 32.0987 35.208H26.026C23.6402 35.208 22.1221 37.152 21.2545 39.312C20.6039 41.472 21.2545 42.984 23.4234 42.984H29.4961C32.3156 42.984 33.4 44.496 32.5324 46.872L32.0987 48.384L31.6649 49.68L22.7727 75.816C20.6039 81.864 18.0013 87.912 14.748 87.912C14.3143 87.912 14.0974 87.696 13.8805 87.48C13.013 86.616 11.9286 86.832 11.061 87.48C9.54284 88.776 8.24154 91.368 8.02466 92.232C7.80778 92.88 8.02466 93.96 8.45843 94.608C10.1935 96.336 12.7961 97.416 16.0493 97.416C23.2065 97.416 27.9779 93.96 32.3156 83.376L36.6532 70.848L39.4727 62.856V62.64C39.4727 62.64 39.4727 62.424 39.6896 62.424L42.726 53.352L43.1597 52.272L44.8948 47.088C45.7623 44.28 47.2805 43.2 50.5337 43.2H52.9195C55.3052 43.2 56.6065 41.904 57.474 39.744C58.1246 37.584 57.6909 35.424 55.5221 35.424H53.1363C50.3169 35.424 49.4493 34.128 50.3169 31.536L51.4013 28.296V28.08C53.5701 22.032 56.1727 15.984 59.4259 15.984C59.8597 15.984 60.0766 16.2 60.2935 16.416C61.161 17.28 62.4623 17.064 63.3298 16.416C64.1974 15.768 65.9324 12.744 66.1493 11.664C66.5831 10.8 66.5831 9.72004 65.9324 9.07204Z" fill="white"/>
<path d="M101.718 23.7601C101.501 23.7601 101.284 23.7601 101.068 23.7601C100.417 23.7601 99.7662 23.3281 99.7662 22.6801C99.7662 22.0321 100.2 21.3841 100.851 21.3841C102.369 21.3841 104.104 20.9521 105.622 20.3041C106.273 20.0881 106.923 20.3041 107.14 20.9521C107.357 21.6001 107.14 22.2481 106.49 22.4641C104.971 23.3281 103.236 23.5441 101.718 23.7601ZM96.7299 23.5441C96.513 23.5441 96.513 23.5441 96.2961 23.5441C94.561 23.1121 92.6091 22.2481 91.0909 21.1681C90.4403 20.7361 90.4403 20.0881 90.874 19.4401C91.3078 18.7921 91.9584 18.7921 92.6091 19.2241C93.9104 20.0881 95.4286 20.7361 96.9468 21.1681C97.5974 21.3841 98.0312 22.0321 97.8143 22.6801C97.5974 23.1121 97.1636 23.5441 96.7299 23.5441ZM110.394 20.9521C109.96 20.9521 109.526 20.7361 109.309 20.3041C108.875 19.6561 109.092 19.0081 109.743 18.5761C111.261 17.7121 112.562 16.8481 113.864 15.5521C114.297 15.1201 115.165 15.1201 115.599 15.7681C116.032 16.2001 116.032 17.0641 115.382 17.4961C113.864 18.7921 112.345 19.6561 110.827 20.7361C110.61 20.7361 110.394 20.7361 110.394 20.9521Z" fill="white"/>
<path d="M117.551 8.20801C116.9 9.93601 116.683 11.88 116.683 14.256C118.635 14.904 120.587 15.12 122.322 15.12C121.671 12.96 120.37 10.8 117.551 8.20801Z" fill="white"/>
<path d="M120.587 4.31995C119.719 4.75195 119.069 5.39995 118.635 6.26395C120.587 7.77595 122.973 10.3679 124.274 14.9039C125.142 14.6879 126.009 14.2559 126.877 13.8239C126.009 11.0159 124.491 7.99195 120.587 4.31995Z" fill="white"/>
<path d="M132.732 6.91199C131.865 6.26399 129.913 5.83199 128.829 6.69599C128.395 6.04799 128.178 5.61599 127.744 4.96799C128.829 4.10399 129.479 2.37599 129.045 1.29599C128.612 0.215994 127.31 0.647994 127.527 1.72799C127.744 2.37599 127.527 3.02399 126.877 3.88799C126.66 3.67199 126.443 3.23999 126.226 3.02399C125.142 2.80799 123.84 3.02399 122.973 3.23999C124.925 4.75199 127.31 7.55999 128.395 12.096C129.045 11.232 129.696 9.93599 129.913 8.63999C129.696 8.20799 129.479 7.77599 129.262 7.34399C130.347 7.12799 130.997 7.12799 131.648 7.77599C132.516 8.85599 133.6 7.55999 132.732 6.91199Z" fill="white"/>
<path d="M116.9 7.77599C117.117 7.12799 117.334 6.47999 117.551 6.04799C116.249 5.18399 114.731 4.10399 114.514 3.23999C114.514 3.02399 114.514 3.02399 114.731 2.59199C115.382 1.72799 117.334 1.94399 119.719 3.45599C120.37 3.02399 121.021 2.80799 121.671 2.59199C117.984 0.215994 114.731 -0.216006 113.213 1.51199C112.996 2.15999 112.779 3.02399 112.779 3.67199C112.996 4.96799 114.514 6.26399 116.9 7.77599Z" fill="white"/>
<path d="M127.31 14.904C127.527 18.144 126.877 20.304 126.009 20.52C125.575 20.52 125.575 20.52 125.358 20.52C124.708 20.088 124.274 17.928 124.274 16.416C123.623 16.416 123.19 16.632 122.539 16.416C122.756 19.224 123.406 20.952 124.491 21.816C124.925 22.248 125.575 22.248 126.009 22.248C126.226 22.248 126.226 22.248 126.443 22.248C129.045 21.6 129.696 17.496 128.829 13.392C128.395 14.04 127.744 14.472 127.31 14.904Z" fill="white"/>
</svg>
