<svg width="113" height="113" viewBox="0 0 113 113" fill="none" xmlns="http://www.w3.org/2000/svg">
<g clip-path="url(#clip0_67_121)">
<path d="M113 56.8461C113 25.4462 87.7021 -0.00704956 56.5 -0.00704956C25.2838 1.29403e-05 -0.014122 25.4462 -0.014122 56.8531C-0.014122 85.2232 20.6508 108.741 47.6578 113.007V73.2805H33.3209V56.8531H47.6719V44.3172C47.6719 30.0721 56.1116 22.2045 69.0148 22.2045C75.2015 22.2045 81.6637 23.3133 81.6637 23.3133V37.2971H74.5376C67.5246 37.2971 65.3352 41.6829 65.3352 46.1817V56.8461H80.9998L78.4997 73.2735H65.3281V113C92.3351 108.734 113 85.2161 113 56.8461Z" fill="white"/>
</g>
<defs>
<clipPath id="clip0_67_121">
<rect width="113" height="113" fill="white"/>
</clipPath>
</defs>
</svg>
