<svg width="114" height="156" viewBox="0 0 114 156" fill="none" xmlns="http://www.w3.org/2000/svg">
<path d="M45.2595 75.7719C48.4506 75.7719 51.0467 73.1759 51.0467 69.9854C51.0467 66.7939 48.4503 64.1971 45.2595 64.1971C42.0679 64.1971 39.4719 66.7939 39.4719 69.9854C39.4719 73.1762 42.0683 75.7719 45.2595 75.7719ZM45.2595 67.4893C46.6356 67.4893 47.7545 68.609 47.7545 69.9854C47.7545 71.3608 46.6352 72.4798 45.2595 72.4798C43.8834 72.4798 42.764 71.3608 42.764 69.9854C42.764 68.609 43.8837 67.4893 45.2595 67.4893Z" fill="black"/>
<path d="M79.09 105.96C75.8989 105.96 73.3029 108.557 73.3029 111.749C73.3029 114.939 75.8992 117.535 79.09 117.535C82.2816 117.535 84.8776 114.939 84.8776 111.749C84.8776 108.557 82.2812 105.96 79.09 105.96ZM79.09 114.243C77.7139 114.243 76.595 113.124 76.595 111.749C76.595 110.372 77.7143 109.252 79.09 109.252C80.4662 109.252 81.5855 110.372 81.5855 111.749C81.5855 113.124 80.4658 114.243 79.09 114.243Z" fill="black"/>
<path d="M67.5409 41.5952C67.9729 41.5952 68.3968 41.4196 68.7045 41.1124C69.0117 40.8051 69.187 40.3808 69.187 39.9492C69.187 39.5175 69.0117 39.0932 68.7045 38.7859C68.3968 38.4787 67.9729 38.3031 67.5409 38.3031C67.106 38.3031 66.6813 38.4787 66.3777 38.7859C66.0704 39.0932 65.8948 39.5175 65.8948 39.9492C65.8948 40.3808 66.0704 40.8051 66.3777 41.1124C66.6853 41.4196 67.1096 41.5952 67.5409 41.5952Z" fill="black"/>
<path d="M58.4697 24.6371C58.905 24.6371 59.3293 24.4615 59.6329 24.1542C59.9405 23.847 60.1157 23.4227 60.1157 22.991C60.1157 22.5594 59.9402 22.1351 59.6329 21.8278C59.3293 21.5206 58.9053 21.345 58.4697 21.345C58.038 21.345 57.6137 21.5206 57.3065 21.8278C56.9992 22.1351 56.8236 22.5594 56.8236 22.991C56.8236 23.4263 56.9992 23.8506 57.3065 24.1542C57.6137 24.4615 58.038 24.6371 58.4697 24.6371Z" fill="black"/>
<path d="M58.4697 55.9343C58.038 55.9343 57.6137 56.1135 57.3065 56.4171C56.9992 56.7244 56.8236 57.1487 56.8236 57.584C56.8236 58.0156 56.9992 58.4399 57.3065 58.7472C57.6137 59.0508 58.038 59.2264 58.4697 59.2264C58.905 59.2264 59.3293 59.0508 59.6329 58.7472C59.9405 58.4399 60.1157 58.0156 60.1157 57.584C60.1157 57.1487 59.9402 56.7244 59.6329 56.4171C59.3289 56.1135 58.905 55.9343 58.4697 55.9343Z" fill="black"/>
<path d="M69.5202 55.9379C69.0886 55.9379 68.6643 56.1135 68.357 56.4171C68.0497 56.7244 67.8741 57.1487 67.8741 57.584C67.8741 58.0156 68.0497 58.4399 68.357 58.7472C68.6643 59.0545 69.0886 59.2301 69.5202 59.2301C69.9555 59.2301 70.3798 59.0545 70.6834 58.7472C70.9911 58.4399 71.1663 58.0156 71.1663 57.584C71.1663 57.1487 70.9907 56.7244 70.6834 56.4171C70.3795 56.1135 69.9555 55.9379 69.5202 55.9379Z" fill="black"/>
<path d="M58.4697 80.4935C58.905 80.4935 59.3293 80.3179 59.6329 80.0106C59.9405 79.7034 60.1157 79.2827 60.1157 78.8474C60.1157 78.4158 59.9402 77.9915 59.6329 77.6842C59.3293 77.3769 58.9053 77.2014 58.4697 77.2014C58.038 77.2014 57.6137 77.3769 57.3065 77.6842C56.9992 77.9915 56.8236 78.4158 56.8236 78.8474C56.8236 79.2827 56.9992 79.707 57.3065 80.0106C57.6137 80.3179 58.038 80.4935 58.4697 80.4935Z" fill="black"/>
<path d="M36.8587 81.0568C37.166 80.7496 37.3416 80.3253 37.3416 79.8936C37.3416 79.462 37.166 79.0377 36.8587 78.7304C36.5515 78.4231 36.1271 78.2476 35.6955 78.2476C35.2635 78.2476 34.8395 78.4231 34.5319 78.7304C34.2247 79.0377 34.0494 79.462 34.0494 79.8936C34.0494 80.3253 34.225 80.7496 34.5319 81.0568C34.8395 81.3641 35.2635 81.5397 35.6955 81.5397C36.1271 81.5397 36.5515 81.3641 36.8587 81.0568Z" fill="black"/>
<path d="M69.5202 93.812C69.9555 93.812 70.3798 93.6364 70.6834 93.3328C70.9911 93.0255 71.1663 92.6012 71.1663 92.1659C71.1663 91.7343 70.9907 91.3099 70.6834 91.0027C70.3798 90.6954 69.9559 90.5198 69.5202 90.5198C69.0886 90.5198 68.6643 90.6954 68.357 91.0027C68.0497 91.3099 67.8741 91.7343 67.8741 92.1659C67.8741 92.6012 68.0497 93.0255 68.357 93.3328C68.6643 93.6364 69.0886 93.812 69.5202 93.812Z" fill="black"/>
<path d="M46.8521 93.812C47.2838 93.812 47.7081 93.6364 48.0153 93.3291C48.3226 93.0255 48.4982 92.6012 48.4982 92.1659C48.4982 91.7343 48.3226 91.3099 48.0153 91.0027C47.7081 90.6954 47.2838 90.5198 46.8521 90.5198C46.4168 90.5198 45.9921 90.6954 45.6852 91.0027C45.3816 91.3099 45.2061 91.7343 45.2061 92.1659C45.2061 92.6012 45.3816 93.0255 45.6852 93.3291C45.9921 93.6364 46.4165 93.812 46.8521 93.812Z" fill="black"/>
<path d="M45.9377 103.67C46.3693 103.67 46.7936 103.494 47.1009 103.187C47.4082 102.88 47.5837 102.459 47.5837 102.024C47.5837 101.592 47.4082 101.168 47.1009 100.861C46.7936 100.554 46.3693 100.378 45.9377 100.378C45.5024 100.378 45.0817 100.554 44.7708 100.861C44.4672 101.168 44.2916 101.592 44.2916 102.024C44.2916 102.456 44.4672 102.88 44.7708 103.187C45.0777 103.494 45.502 103.67 45.9377 103.67Z" fill="black"/>
<path d="M37.8496 100.971C38.2853 100.971 38.7096 100.795 39.0169 100.488C39.3205 100.18 39.4993 99.7561 39.4993 99.3245C39.4993 98.8892 39.3205 98.4649 39.0169 98.1613C38.7096 97.854 38.2853 97.6784 37.8496 97.6784C37.418 97.6784 36.9937 97.854 36.6864 98.1613C36.3791 98.4649 36.2036 98.8892 36.2036 99.3245C36.2036 99.7561 36.3791 100.18 36.6864 100.488C36.994 100.795 37.4183 100.971 37.8496 100.971Z" fill="black"/>
<path d="M59.2012 118.192C58.7696 118.192 58.3453 118.368 58.038 118.671C57.7308 118.978 57.5552 119.403 57.5552 119.838C57.5552 120.27 57.7308 120.694 58.038 121.001C58.3453 121.308 58.7696 121.484 59.2012 121.484C59.6365 121.484 60.0572 121.308 60.3681 121.001C60.6717 120.694 60.8473 120.27 60.8473 119.838C60.8473 119.406 60.6717 118.978 60.3681 118.671C60.0605 118.368 59.6365 118.192 59.2012 118.192Z" fill="black"/>
<path d="M65.9571 110.101C65.5222 110.101 65.0975 110.28 64.7906 110.583C64.487 110.891 64.311 111.315 64.311 111.747C64.311 112.182 64.4866 112.606 64.7906 112.914C65.0979 113.217 65.5222 113.393 65.9571 113.393C66.3891 113.393 66.813 113.217 67.1207 112.914C67.4279 112.606 67.6032 112.182 67.6032 111.747C67.6032 111.315 67.4276 110.891 67.1207 110.583C66.813 110.28 66.3891 110.101 65.9571 110.101Z" fill="black"/>
<path d="M79.0893 102.77C79.5209 102.77 79.9489 102.595 80.2525 102.287C80.5598 101.98 80.7354 101.556 80.7354 101.124C80.7354 100.693 80.5598 100.268 80.2525 99.9609C79.9489 99.6537 79.5246 99.4781 79.0893 99.4781C78.654 99.4781 78.2297 99.6537 77.9261 99.9609C77.6185 100.268 77.4432 100.693 77.4432 101.124C77.4432 101.556 77.6188 101.98 77.9261 102.287C78.2333 102.595 78.6577 102.77 79.0893 102.77Z" fill="black"/>
<path d="M113.02 114.308C113.159 114.009 113.283 113.682 113.384 113.317C113.854 111.625 113.877 108.396 111.935 106.938C111.003 106.239 109.368 105.728 106.875 107.268C105.257 108.269 103.965 109.576 103.006 111.17C102.047 109.576 100.756 108.269 99.138 107.269C96.6451 105.727 95.0115 106.239 94.0794 106.938C93.695 107.227 93.3903 107.586 93.1481 107.987C90.1922 102.341 87.4564 96.1838 85.3294 91.0769C86.8254 90.8147 88.3994 90.4331 89.8864 89.9594C94.9145 88.3584 95.6988 86.8323 95.851 85.8242C95.9644 85.0754 95.8162 83.7505 93.7202 82.9392C87.6803 76.0678 80.9318 61.4453 76.9344 52.0122C78.5933 51.5876 79.6285 50.5992 80.4998 49.7645C81.4703 48.8343 82.1115 48.2197 83.5399 48.2197C84.4489 48.2197 85.186 47.4827 85.186 46.5737C85.186 46.5689 85.1845 46.5645 85.1845 46.5598C85.19 46.0257 84.9369 45.4993 84.461 45.1782C72.2091 36.9054 61.359 11.4295 60.1172 8.44064V6.51767H61.6956C62.6046 6.51767 63.3416 5.7806 63.3416 4.87161C63.3416 3.96262 62.6046 3.22555 61.6956 3.22555H60.1172V1.64606C60.1172 0.73707 59.3801 0 58.4711 0C57.5621 0 56.8251 0.73707 56.8251 1.64606V3.22482H55.2463C54.3373 3.22482 53.6002 3.96189 53.6002 4.87088C53.6002 5.77987 54.3373 6.51694 55.2463 6.51694H56.8251V8.43991C55.5832 11.4288 44.7331 36.9047 32.4809 45.1774C32.005 45.4986 31.7523 46.025 31.7574 46.559C31.7574 46.5638 31.7559 46.5682 31.7559 46.5729C31.7559 47.4816 32.4922 48.2183 33.4009 48.219V48.2194C33.402 48.2194 33.4034 48.219 33.4045 48.219C34.8304 48.2197 35.4709 48.8339 36.4406 49.7634C37.3119 50.5985 38.3478 51.5876 40.0074 52.0115C35.9512 61.5832 29.0611 76.506 22.9546 83.2432C22.3441 83.9169 22.3953 84.958 23.0687 85.5681C23.3837 85.8538 23.7795 85.9946 24.1738 85.9946C26.37 85.9946 27.4206 87.0013 28.7506 88.2764C29.5795 89.0709 30.5221 89.973 31.8035 90.616C25.7357 105.248 19.9306 116.013 15.393 121.02C14.7825 121.693 14.8337 122.734 15.5071 123.344C15.822 123.629 16.2167 123.77 16.6107 123.771C16.6293 123.771 16.6484 123.768 16.667 123.767C19.4551 123.783 20.7785 125.049 22.4494 126.651C24.3084 128.432 26.415 130.451 30.5645 130.451C34.7141 130.451 36.821 128.432 38.6796 126.651C40.3619 125.039 41.6904 123.766 44.5176 123.766C47.3441 123.766 48.6719 125.039 50.3538 126.651C50.5291 126.819 50.709 126.989 50.8905 127.16H39.8201C38.9112 127.16 38.1741 127.897 38.1741 128.806V137.018H25.205C25.326 136.736 25.435 136.433 25.5276 136.1C26.0368 134.266 26.0679 130.774 23.9836 129.209C22.9934 128.466 21.25 127.929 18.5684 129.586C16.7087 130.735 15.2404 132.253 14.1756 134.118C13.1104 132.252 11.6421 130.735 9.78246 129.586C7.10157 127.929 5.35858 128.466 4.36801 129.209C2.28337 130.774 2.31519 134.267 2.82437 136.1C2.91692 136.433 3.02593 136.736 3.14664 137.018H1.99695C1.08796 137.018 0.350891 137.755 0.350891 138.664V154.349C0.350891 155.258 1.08796 155.995 1.99695 155.995H111.955C112.864 155.995 113.601 155.258 113.601 154.349V115.554C113.601 115.053 113.372 114.61 113.02 114.308ZM96.0558 109.571C96.0931 109.542 96.5054 109.511 97.4063 110.069C99.2375 111.201 100.206 112.702 100.736 113.908H97.6265C96.6283 113.826 96.1015 113.516 95.8016 112.436C95.4742 111.257 95.7281 109.816 96.0558 109.571ZM88.0852 80.9928C83.3811 79.2107 78.9686 77.0883 74.8838 74.8018C76.441 73.7637 77.4696 71.9929 77.4696 69.9854C77.4696 66.7939 74.8732 64.1971 71.6824 64.1971C68.7469 64.1971 66.3206 66.3966 65.9497 69.233C55.517 62.0455 48.2472 54.5867 45.2386 51.2723C45.9742 50.8161 46.5544 50.2627 47.0749 49.7637C48.045 48.8339 48.6858 48.2194 50.1135 48.2194C51.5408 48.2194 52.1817 48.8339 53.1521 49.7637C54.296 50.8596 55.7193 52.2237 58.4697 52.2237C61.2197 52.2237 62.643 50.8596 63.7861 49.7637C64.7565 48.8335 65.3977 48.219 66.8258 48.219C68.2535 48.219 68.8947 48.8335 69.8655 49.7637C70.7237 50.586 71.7391 51.559 73.3544 51.994C77.3204 61.4764 82.7271 73.1923 88.0852 80.9928ZM69.187 69.9854C69.187 68.6089 70.3063 67.4892 71.682 67.4892C73.0582 67.4892 74.1771 68.6089 74.1771 69.9854C74.1771 71.3608 73.0578 72.4797 71.682 72.4797C70.3063 72.4797 69.187 71.3608 69.187 69.9854ZM58.4711 12.9421C59.9412 16.2371 62.395 21.424 65.5338 26.9164C64.6139 27.9589 63.5973 28.9857 62.4893 29.9861C61.4472 28.9787 60.0316 28.3551 58.4715 28.3551C55.28 28.3551 52.6839 30.9511 52.6839 34.1422C52.6839 35.022 52.8869 35.8534 53.2399 36.6007C48.6664 39.2458 44.03 41.2262 40.3498 42.596C48.7228 33.5559 55.5448 19.5011 58.4711 12.9421ZM60.9662 34.1422C60.9662 35.518 59.8469 36.6373 58.4711 36.6373C57.095 36.6373 55.9757 35.518 55.9757 34.1422C55.9757 32.7665 57.0954 31.6472 58.4711 31.6472C59.8469 31.6472 60.9662 32.7665 60.9662 34.1422ZM38.7188 47.3872C38.5424 47.2182 38.3581 47.0426 38.1642 46.8667C42.3467 45.4851 48.9635 42.9644 55.4954 39.0973C56.3664 39.6222 57.3818 39.9298 58.4708 39.9298C61.6619 39.9298 64.2579 37.3338 64.2579 34.1426C64.2579 33.7282 64.2122 33.3243 64.1288 32.9344C65.2628 31.9435 66.3151 30.9233 67.2838 29.8841C70.9183 35.8615 75.2862 41.8564 80.0166 45.9043C79.3004 46.3553 78.7327 46.8981 78.2217 47.3879C77.2512 48.3178 76.61 48.9323 75.1819 48.9323C73.7539 48.9323 73.113 48.3178 72.1422 47.3875C70.9987 46.2916 69.5754 44.9276 66.8251 44.9276C64.0747 44.9276 62.6514 46.2916 61.5076 47.3875C60.5375 48.3174 59.8966 48.9319 58.4689 48.9319C57.0412 48.9319 56.4 48.3174 55.4292 47.3872C54.2861 46.2913 52.8628 44.9272 50.1128 44.9272C47.3628 44.9272 45.9395 46.2913 44.796 47.3872C43.8259 48.3174 43.1847 48.9319 41.757 48.9319C40.3304 48.9319 39.6892 48.3174 38.7188 47.3872ZM31.0287 85.9006C30.048 84.9605 28.9053 83.8719 27.2329 83.238C32.8039 75.984 38.594 63.7706 42.9027 53.6203C48.3965 59.7162 66.1769 77.6557 91.6777 85.7331C89.518 86.8191 84.6724 88.1824 81.3345 88.1824C79.1376 88.1824 78.0867 87.1754 76.7563 85.9006C75.2701 84.4762 73.4206 82.7036 69.9006 82.7036C66.3817 82.7036 64.5319 84.4762 63.0464 85.9006C61.7161 87.1754 60.6655 88.1824 58.4686 88.1824C56.272 88.1824 55.2218 87.1754 53.8918 85.9006C52.4056 84.4759 50.5565 82.7032 47.0372 82.7032C43.5179 82.7032 41.6681 84.4762 40.1823 85.9006C38.8523 87.1754 37.8021 88.1824 35.6055 88.1824C33.4089 88.1824 32.3587 87.1754 31.0287 85.9006ZM20.6081 119.729C25.8696 112.331 31.1564 100.813 35.0195 91.4559C35.2101 91.4672 35.4043 91.4746 35.6055 91.4746C39.1248 91.4746 40.9746 89.7016 42.4604 88.2772C43.7904 87.0024 44.8406 85.9954 47.0372 85.9954C49.2334 85.9954 50.2836 87.002 51.6136 88.2772C53.0998 89.7016 54.9489 91.4746 58.4686 91.4746C61.9886 91.4746 63.838 89.7016 65.3242 88.2772C66.6542 87.0024 67.7044 85.9957 69.9006 85.9957C72.0976 85.9957 73.1485 87.0028 74.4789 88.2775C75.6564 89.406 77.065 90.7496 79.3487 91.2606C74.8377 95.8787 69.6552 99.8113 64.2426 103.151C64.0783 100.106 61.5562 97.6777 58.4715 97.6777C55.28 97.6777 52.6839 100.274 52.6839 103.465C52.6839 105.404 53.6456 107.118 55.1132 108.169C51.167 110.102 47.2285 111.758 43.4557 113.17C43.5713 112.714 43.6397 112.239 43.6397 111.749C43.6397 108.557 41.0434 105.96 37.8526 105.96C34.6614 105.96 32.0654 108.557 32.0654 111.749C32.0654 113.58 32.9232 115.212 34.2554 116.273C28.6061 117.98 23.8065 119.081 20.6081 119.729ZM55.9753 103.465C55.9753 102.089 57.095 100.97 58.4708 100.97C59.8469 100.97 60.9658 102.089 60.9658 103.465C60.9658 104.841 59.8465 105.96 58.4708 105.96C57.095 105.96 55.9753 104.841 55.9753 103.465ZM35.3564 111.748C35.3564 110.372 36.4757 109.252 37.8515 109.252C39.2276 109.252 40.3465 110.372 40.3465 111.748C40.3465 113.124 39.2276 114.243 37.8515 114.243C36.4757 114.243 35.3564 113.124 35.3564 111.748ZM56.9169 152.704H14.3592V147.488H56.9172V152.704H56.9169ZM56.9169 144.196H14.3592V140.311H56.9172V144.196H56.9169ZM11.0671 140.311V144.196H3.64265V140.311H11.0671ZM20.2986 132.387C21.2771 131.782 21.8561 131.731 22.0061 131.843C22.4707 132.192 22.7231 133.892 22.3543 135.22C21.9041 136.841 21.0009 137.019 19.1891 137.019H16.4099C16.9772 135.613 18.0757 133.761 20.2986 132.387ZM5.99578 135.22C5.6267 133.892 5.8791 132.192 6.34402 131.843C6.49216 131.73 7.07158 131.782 8.05044 132.387C10.2733 133.761 11.3718 135.613 11.9395 137.019H9.16134C7.34958 137.019 6.44644 136.841 5.99578 135.22ZM3.64265 147.488H11.0671V152.704H3.64265V147.488ZM64.3099 152.704H60.209V138.665C60.209 137.756 59.4719 137.019 58.5629 137.019H41.4651V130.453H64.3099V152.704ZM71.5002 152.704H67.6024V130.453H71.5002V152.704ZM85.5272 152.704H74.792V147.488H85.5272V152.704ZM85.5272 144.196H74.792V140.311H85.5272V144.196ZM85.5272 137.019H74.792V128.807C74.792 127.898 74.0549 127.16 73.1459 127.16H66.0474C66.2285 126.99 66.4073 126.82 66.5829 126.652C68.2652 125.04 69.5934 123.767 72.4206 123.767C75.2481 123.767 76.5767 125.04 78.2593 126.652C79.987 128.307 81.9311 130.166 85.5272 130.421V137.019ZM85.5272 115.554V127.116C83.2656 126.884 82.0409 125.716 80.5368 124.275C78.6778 122.494 76.5705 120.474 72.4206 120.474C68.2707 120.474 66.1637 122.494 64.3051 124.275C62.6228 125.887 61.2947 127.161 58.4678 127.161C55.641 127.161 54.3128 125.887 52.6305 124.275C50.7719 122.494 48.6653 120.475 44.5162 120.475C40.3663 120.475 38.2593 122.494 36.4007 124.276C34.7185 125.888 33.3903 127.161 30.5634 127.161C27.737 127.161 26.4088 125.888 24.7269 124.276C24.1562 123.729 23.5618 123.16 22.8932 122.634C27.4242 121.67 34.131 120.002 41.7647 117.324C53.8749 113.077 70.4903 105.416 82.4637 92.7603C85.1666 99.2206 88.7971 107.254 92.6375 113.909H87.1733C86.2643 113.908 85.5272 114.645 85.5272 115.554ZM102.452 152.704H88.8194V124.743H102.452V152.704ZM102.452 121.451H88.8194V117.2H102.452V121.451ZM110.309 152.704H105.745V124.743H110.309V152.704ZM110.309 121.451H105.745V117.2H110.309V121.451ZM110.212 112.436C109.912 113.516 109.386 113.826 108.387 113.908H105.279C105.807 112.703 106.774 111.201 108.606 110.069C109.507 109.512 109.92 109.542 109.958 109.571C110.285 109.816 110.539 111.257 110.212 112.436Z" fill="black"/>
</svg>
