<svg width="83" height="110" viewBox="0 0 83 110" fill="none" xmlns="http://www.w3.org/2000/svg">
<path fill-rule="evenodd" clip-rule="evenodd" d="M70.7688 69.8136L69.9525 16.3754L74.0739 16.3206L74.8903 69.7585L70.7688 69.8136Z" fill="white"/>
<path fill-rule="evenodd" clip-rule="evenodd" d="M43.6174 102.943L71.6666 67.3447L74.8903 69.6032L46.8412 105.201L43.6174 102.943Z" fill="white"/>
<path fill-rule="evenodd" clip-rule="evenodd" d="M23.8661 87.3947L46.0192 58.292L49.3782 60.4623L27.2248 89.5649L23.8661 87.3947Z" fill="white"/>
<path fill-rule="evenodd" clip-rule="evenodd" d="M26.6971 105.754C21.4793 101.509 19.0785 93.9574 24.3593 87.0959L27.6653 89.2857C23.7996 94.3086 25.4496 99.7265 29.3761 102.921C33.2933 106.108 39.1903 106.856 43.913 102.548L46.9093 105.084L45.3374 103.891L46.7609 105.235C40.2614 111.165 31.9227 110.005 26.6971 105.754Z" fill="white"/>
<path fill-rule="evenodd" clip-rule="evenodd" d="M63.7996 79.6891L62.6052 78.5629C53.4045 69.8905 60.5104 54.7426 73.2443 55.884L72.8765 59.7949C63.925 58.9924 58.9303 69.6406 65.3977 75.7378L66.5921 76.864L63.7996 79.6891Z" fill="white"/>
<path fill-rule="evenodd" clip-rule="evenodd" d="M51.5011 0.686188C54.3347 0.7608 57.3334 2.8831 57.6079 6.9548L53.6165 7.26784C53.5164 5.787 52.5476 5.02927 51.4036 4.99902C50.8264 4.98404 50.31 5.17357 49.95 5.48797C49.6199 5.77521 49.3215 6.24965 49.2599 7.07193L47.2659 6.90058L45.2651 6.93353L45.2634 6.83138L45.2711 6.72912C45.4156 4.77692 46.2159 3.19605 47.4318 2.13495C48.6161 1.10139 50.0902 0.649075 51.5011 0.686188Z" fill="white"/>
<path fill-rule="evenodd" clip-rule="evenodd" d="M45.2634 59.938V16.3206H48.5552V59.938H45.2634Z" fill="white"/>
<path fill-rule="evenodd" clip-rule="evenodd" d="M2.46893 82.4561L23.9077 53.3542L27.158 55.5241L5.71936 84.6271L2.46893 82.4561Z" fill="white"/>
<path fill-rule="evenodd" clip-rule="evenodd" d="M5.29972 100.816C0.0821665 96.5708 -2.31873 89.0196 2.9621 82.1582L6.26802 84.348C2.40234 89.3708 4.05244 94.7887 7.97819 97.9831C11.8959 101.171 17.7932 101.919 22.5154 97.61L25.5121 100.146L23.9397 98.9539L25.3638 100.297C18.8636 106.227 10.5256 105.067 5.29972 100.816Z" fill="white"/>
<path fill-rule="evenodd" clip-rule="evenodd" d="M23.0432 55.0001V28.665H27.158V55.0001H23.0432Z" fill="white"/>
<path fill-rule="evenodd" clip-rule="evenodd" d="M80.2395 4.79883C81.3755 4.79883 82.297 5.6882 82.297 6.78496V14.3338C82.297 15.431 81.3755 16.3204 80.2395 16.3204C79.1036 16.3204 78.1821 15.431 78.1821 14.3338V6.78496C78.1821 5.6882 79.1036 4.79883 80.2395 4.79883Z" fill="white"/>
<path fill-rule="evenodd" clip-rule="evenodd" d="M45.2634 17.9664V6.44482H48.5552V17.9664H45.2634Z" fill="white"/>
<path fill-rule="evenodd" clip-rule="evenodd" d="M53.493 17.9664V6.44482H57.6079V17.9664H53.493Z" fill="white"/>
<path fill-rule="evenodd" clip-rule="evenodd" d="M68.0337 1.51134C70.8716 1.61085 73.8399 3.49751 74.0673 7.0517L70.2581 7.26787C70.1684 5.86911 69.1183 5.14039 67.8914 5.09734C67.2726 5.07608 66.7072 5.24579 66.304 5.54423C65.9307 5.82016 65.5999 6.27376 65.5211 7.04045L61.7228 6.69761C61.8958 4.99408 62.7195 3.63006 63.9445 2.72367C65.1405 1.83952 66.6193 1.46203 68.0337 1.51134Z" fill="white"/>
<path fill-rule="evenodd" clip-rule="evenodd" d="M61.7228 17.9664V6.44482H65.8376V17.9664H61.7228Z" fill="white"/>
<path fill-rule="evenodd" clip-rule="evenodd" d="M69.9525 17.9664V6.44482H74.0673V17.9664H69.9525Z" fill="white"/>
<path fill-rule="evenodd" clip-rule="evenodd" d="M59.7316 0.686188C62.5644 0.760801 65.5631 2.88304 65.8376 6.95489L61.8462 7.26784C61.7461 5.78697 60.7773 5.02934 59.6333 4.99909C59.0561 4.9841 58.5396 5.17364 58.1796 5.48804C57.8496 5.77518 57.5512 6.24973 57.4896 7.07203L55.4956 6.90057L53.4948 6.93363L53.493 6.83137L53.5007 6.72873C53.6452 4.77698 54.4456 3.19608 55.6615 2.13497C56.8458 1.1014 58.3199 0.649074 59.7316 0.686188Z" fill="white"/>
<path fill-rule="evenodd" clip-rule="evenodd" d="M53.493 17.9664V6.44482H57.6079V17.9664H53.493Z" fill="white"/>
<path fill-rule="evenodd" clip-rule="evenodd" d="M61.7228 17.9664V6.44482H65.8376V17.9664H61.7228Z" fill="white"/>
<path fill-rule="evenodd" clip-rule="evenodd" d="M23.0432 28.665H46.0863V32.7799H23.0432V28.665Z" fill="white"/>
<path fill-rule="evenodd" clip-rule="evenodd" d="M82.297 10.9712C82.297 12.1076 81.392 13.0287 80.2763 13.0287H39.0543C37.9386 13.0287 37.0336 12.1076 37.0336 10.9712C37.0336 9.83482 37.9386 8.91382 39.0543 8.91382H80.2763C81.392 8.91382 82.297 9.83482 82.297 10.9712Z" fill="white"/>
<path fill-rule="evenodd" clip-rule="evenodd" d="M45.2634 16.3206H73.2443V20.4354H45.2634V16.3206Z" fill="white"/>
</svg>
