<svg width="119" height="145" viewBox="0 0 119 145" fill="none" xmlns="http://www.w3.org/2000/svg">
<path d="M47.4969 29.8798C45.0784 23.1552 41.0232 17.9953 35.4442 14.5427C33.5279 13.3567 31.8521 12.7802 30.3212 12.7802C28.6657 12.7802 27.2588 13.4715 26.2531 14.7792C24.0373 17.6604 24.3842 22.8032 25.158 25.5568C27.1548 32.6627 33.2505 32.6627 36.1802 32.6627H46.1598C46.7734 32.6627 47.2768 32.292 47.6271 31.7941C48.0202 31.2354 47.5553 30.0429 47.4969 29.8798ZM36.1798 29.3728C32.6262 29.3728 29.5852 29.0193 28.365 24.6768C27.6516 22.1385 27.6545 18.3938 28.9032 16.7706C29.2753 16.2866 29.7124 16.0705 30.3212 16.0705C30.923 16.0705 31.9937 16.2891 33.6777 17.3314C38.1556 20.1026 41.5325 24.1482 43.7332 29.3728H36.1798Z" fill="black"/>
<path d="M72.8405 32.6631H82.8201C85.7494 32.6631 91.8455 32.6631 93.8424 25.5571C94.6161 22.8035 94.9631 17.6608 92.7472 14.7792C91.7416 13.4715 90.335 12.7802 88.6791 12.7802C87.1482 12.7802 85.4724 13.3567 83.5565 14.5423C77.9775 17.9946 73.9224 23.1545 71.5035 29.8787C71.4446 30.0418 71.0193 31.0731 71.3725 31.7941C71.6403 32.3403 72.2265 32.6631 72.8405 32.6631ZM85.323 17.3314C87.0066 16.2891 88.0773 16.0705 88.6791 16.0705C89.2875 16.0705 89.7247 16.2862 90.0968 16.7702C91.3451 18.3934 91.348 22.1382 90.6346 24.6764C89.4144 29.0189 86.3734 29.3724 82.8198 29.3724H75.2668C77.4682 24.1482 80.8451 20.1026 85.323 17.3314Z" fill="black"/>
<path d="M116.836 36.2437H95.9266C98.9927 34.2029 101.655 30.9002 103.162 25.5382C105.05 18.8179 104.869 6.66542 98.4827 1.92594C95.5689 -0.236147 90.2178 -1.66596 81.2719 3.79994C67.1495 12.4293 61.7625 24.573 59.5 31.7623C57.2372 24.5734 51.8501 12.4289 37.7281 3.79994C28.7819 -1.66596 23.4311 -0.236147 20.5173 1.92594C14.1309 6.66578 13.9497 18.8179 15.8382 25.5382C17.345 30.9002 20.0076 34.2029 23.0734 36.2437H2.16438C1.24527 36.2437 0.5 36.9803 0.5 37.8888V71.6439C0.5 72.5524 1.24527 73.289 2.16438 73.289H12.9377V143C12.9377 143.908 13.683 144.645 14.6021 144.645H104.398C105.317 144.645 106.063 143.908 106.063 143V73.289H116.836C117.755 73.289 118.5 72.5524 118.5 71.6439V37.8888C118.5 36.9799 117.755 36.2437 116.836 36.2437ZM83.0221 6.59815C88.9229 2.99309 93.4522 2.30688 96.4836 4.55671C101.407 8.21039 101.662 18.5781 99.9544 24.6571C96.6985 36.2433 87.6805 36.2433 81.0959 36.2433H61.6925C63.0854 30.7587 67.1876 16.2738 83.0221 6.59815ZM69.0054 108.936H102.734V118.49H69.0054V108.936ZM69.0054 105.645V96.0915H102.734V105.645H69.0054ZM69.0054 121.78H102.734V131.334H69.0054V121.78ZM102.734 92.8012H69.0058V83.2473H102.734V92.8012ZM65.6767 71.6402C65.6767 71.6413 65.6763 71.6424 65.6763 71.6439C65.6763 71.645 65.6767 71.6461 65.6767 71.6475V141.355H53.3233V39.5339H65.6767V71.6402ZM49.9945 105.645H16.2665V96.0915H49.9945V105.645ZM49.9945 108.936V118.49H16.2665V108.936H49.9945ZM49.9945 92.8012H16.2665V83.2473H49.9945V92.8012ZM16.2665 121.78H49.9945V131.334H16.2665V121.78ZM19.0456 24.6574C17.3372 18.5785 17.5928 8.21112 22.516 4.55707C25.5485 2.30651 30.0775 2.99382 35.9775 6.59851C51.8117 16.2734 55.9142 30.7591 57.3075 36.2437H37.9041C31.3195 36.2437 22.3015 36.2437 19.0456 24.6574ZM3.82876 39.5339H49.9945V69.9987H3.82876V39.5339ZM49.9945 73.289V79.957H16.2665V73.289H49.9945ZM16.2665 134.624H49.9945V141.355H16.2665V134.624ZM69.0054 141.354V134.624H102.734V141.354H69.0054ZM102.734 79.957H69.0058V73.289H102.734V79.957ZM115.171 69.9987H69.0054V39.5339H115.171V69.9987H115.171Z" fill="black"/>
</svg>
