<svg width="123" height="122" viewBox="0 0 123 122" fill="none" xmlns="http://www.w3.org/2000/svg">
<g clip-path="url(#clip0_67_154)">
<path d="M93.9804 27.4805C94.4441 27.4805 94.9116 27.3199 95.294 26.9965L109.692 14.7701C111.02 15.7054 112.626 16.2667 114.367 16.2667C118.852 16.2667 122.5 12.6189 122.5 8.13349C122.5 3.64785 118.852 0 114.367 0C109.881 0 106.233 3.64785 106.233 8.13325C106.233 9.4021 106.55 10.5895 107.071 11.661L92.6608 23.8956C91.8046 24.6235 91.6991 25.9064 92.427 26.7626C92.8295 27.2365 93.4009 27.4805 93.9804 27.4805ZM114.367 4.06675C116.607 4.06675 118.433 5.89055 118.433 8.13349C118.433 10.3762 116.607 12.2002 114.367 12.2002C112.124 12.2002 110.3 10.3764 110.3 8.13349C110.3 5.89055 112.124 4.06675 114.367 4.06675Z" fill="black"/>
<path d="M55.3998 113.867C45.5461 113.867 36.3413 110.924 28.5781 105.394L31.3129 103.257C32.1995 102.567 32.3561 101.289 31.6646 100.404C30.9712 99.5175 29.6964 99.3569 28.8119 100.052L5.34925 118.365C4.46261 119.054 4.30606 120.333 4.99755 121.217C5.3981 121.732 5.99595 122 6.6019 122C7.03914 122 7.4802 121.86 7.85025 121.569L25.2495 107.99C33.9013 114.477 44.2754 117.933 55.3998 117.933C56.5242 117.933 57.433 117.022 57.433 115.9C57.433 114.778 56.5242 113.867 55.3998 113.867Z" fill="black"/>
<path d="M114.367 28.4667C109.881 28.4667 106.233 32.1146 106.233 36.6C106.233 37.5333 106.424 38.4157 106.713 39.2513L92.7441 50.152C91.8596 50.8432 91.7031 52.1223 92.3924 53.0068C92.7951 53.5213 93.3927 53.7896 93.9968 53.7896C94.434 53.7896 94.8751 53.6492 95.2473 53.3604L99.08 50.3652C101.128 55.6946 102.167 61.3107 102.167 67.0995C102.167 80.5826 96.4673 92.8172 87.2074 101.404C95.4913 75.4891 91.2253 47.309 75.6458 24.9749C82.7666 28.399 89.0231 33.5983 93.6916 40.2433C94.0859 40.8066 94.7183 41.1075 95.3569 41.1075C95.7615 41.1075 96.1702 40.9877 96.5261 40.7396C97.4433 40.0929 97.6649 38.8243 97.0203 37.9072C87.4981 24.3549 71.9412 16.2665 55.4 16.2665C54.2491 16.2665 53.1044 16.3172 51.9637 16.3947C51.913 16.3947 51.8641 16.4009 51.8091 16.4049C39.5948 17.2527 28.2204 22.4013 19.471 31.1386C18.678 31.9335 18.678 33.2188 19.471 34.0137C20.2661 34.8107 21.5512 34.8088 22.3461 34.0158C26.8946 29.4735 32.22 26.0046 38.0109 23.6844C41.0345 26.3196 43.8405 29.1439 46.4065 32.137C33.7288 33.2717 21.5593 36.9662 11.0082 42.9707C10.9574 42.999 10.9289 43.05 10.8781 43.0824C10.7642 43.1618 10.6646 43.2511 10.565 43.3548C10.4714 43.4544 10.3882 43.554 10.3169 43.6679C10.2824 43.7186 10.2335 43.7513 10.2052 43.8042C7.34629 49.3449 5.54489 55.4328 4.87389 61.661C4.85959 61.7322 4.85959 61.8032 4.85554 61.8785C4.67659 63.613 4.56674 65.3555 4.56674 67.1002C4.56674 73.6963 5.81105 80.1135 8.26749 86.1749C8.58678 86.9657 9.34928 87.4456 10.1523 87.4456C10.4065 87.4456 10.6667 87.3968 10.9169 87.2972C11.958 86.8742 12.4581 85.6888 12.0373 84.6477C10.9882 82.0593 10.2052 79.3955 9.63999 76.681C24.2983 64.8511 42.6593 58.3079 61.5612 58.255C67.96 76.0934 68.3139 96.0059 61.6689 114.519C61.6527 114.564 61.6627 114.607 61.6487 114.652C61.616 114.767 61.6101 114.888 61.5979 115.011C61.5836 115.158 61.5653 115.298 61.5836 115.441C61.5877 115.481 61.5734 115.516 61.5796 115.556C61.5979 115.666 61.6549 115.756 61.6894 115.859C61.7221 115.953 61.7442 116.048 61.7912 116.138C61.8765 116.305 61.9904 116.447 62.1186 116.583C62.1593 116.628 62.1877 116.679 62.2325 116.719C62.5985 117.047 63.0722 117.25 63.5826 117.25C63.6943 117.25 63.8104 117.242 63.9243 117.222C88.4396 113.082 106.233 92.0023 106.233 67.1C106.233 60.3921 104.936 53.9016 102.409 47.7692L108.978 42.6452C110.416 43.9283 112.291 44.7335 114.367 44.7335C118.852 44.7335 122.5 41.0856 122.5 36.6002C122.5 32.1143 118.852 28.4667 114.367 28.4667ZM13.5559 46.2196C24.239 40.2538 36.6282 36.732 49.4992 35.9819C51.2255 38.2591 52.8277 40.6179 54.3039 43.0436C38.3951 43.7429 22.8036 48.8426 9.6052 57.6145C10.4165 53.6778 11.73 49.8696 13.5559 46.2196ZM8.9118 72.0634C8.73905 70.4226 8.63325 68.7694 8.63325 67.1C8.63325 65.762 8.70855 64.4384 8.81839 63.1207C22.5717 53.0414 39.4547 47.3665 56.5997 47.0553C57.844 49.3895 58.9725 51.7787 59.9893 54.2125C41.4696 54.6295 23.5599 60.8801 8.9118 72.0634ZM66.6361 112.482C72.5226 93.649 71.6686 73.6575 64.9667 55.7456C64.9241 55.5688 64.8671 55.4039 64.7816 55.2495C63.3522 51.5002 61.6625 47.8461 59.7288 44.3143C59.6719 44.1537 59.5825 44.0174 59.4889 43.8811C55.0521 35.888 49.3446 28.5334 42.4353 22.1732C45.2881 21.3538 48.2304 20.7986 51.2315 20.5365C75.4771 43.7532 83.4233 79.9402 71.1216 111.16C69.6657 111.677 68.1631 112.108 66.6361 112.482ZM76.2598 108.962C86.7356 78.3218 79.1635 43.8244 56.8111 20.3759C60.8066 20.4979 64.7289 21.1262 68.4945 22.2261C87.7827 45.8574 92.6321 77.8846 81.1927 106.125C79.6148 107.167 77.9719 108.112 76.2598 108.962ZM114.367 40.6667C112.124 40.6667 110.3 38.8429 110.3 36.6C110.3 34.3573 112.124 32.5332 114.367 32.5332C116.607 32.5332 118.433 34.357 118.433 36.6C118.433 38.8427 116.607 40.6667 114.367 40.6667Z" fill="black"/>
<path d="M18.0883 101.626C18.491 102.057 19.0359 102.277 19.5828 102.277C20.077 102.277 20.5731 102.098 20.9655 101.736C21.789 100.973 21.8379 99.6861 21.0754 98.8626C19.4832 97.1425 18.1738 95.5219 16.9741 93.7794L28.3322 83.8507C29.176 83.1125 29.2615 81.8274 28.5233 80.9815C27.7832 80.1356 26.496 80.0503 25.6542 80.7883L13.6636 91.27C13.4663 91.3208 13.2671 91.3737 13.0863 91.4876C12.7162 91.7194 12.4784 92.0652 12.3219 92.4433L1.19531 102.169C0.34941 102.907 0.264106 104.192 1.00206 105.038C1.40261 105.498 1.96782 105.733 2.53326 105.733C3.00911 105.733 3.48686 105.569 3.87121 105.231L13.8955 96.4672C15.1338 98.2283 16.4758 99.8834 18.0883 101.626Z" fill="black"/>
</g>
<defs>
<clipPath id="clip0_67_154">
<rect width="122" height="122" fill="white" transform="translate(0.5)"/>
</clipPath>
</defs>
</svg>
