<svg width="153" height="183" viewBox="0 0 153 183" fill="none" xmlns="http://www.w3.org/2000/svg">
<path d="M15.0416 169.8C14.6138 169.8 14.2573 169.705 13.9721 169.515C13.7028 169.308 13.4809 169.006 13.3066 168.61L7.10345 154.66C6.92915 154.264 6.88162 153.914 6.96084 153.613C7.04006 153.312 7.20643 153.074 7.45993 152.899C7.71349 152.724 8.01452 152.637 8.36307 152.637C8.82259 152.637 9.16328 152.74 9.38505 152.946C9.62272 153.137 9.82081 153.431 9.97923 153.827L15.612 166.896H14.59L20.199 153.803C20.3734 153.422 20.5793 153.137 20.817 152.946C21.0546 152.74 21.3874 152.637 21.8152 152.637C22.1638 152.637 22.449 152.724 22.6708 152.899C22.9085 153.074 23.059 153.312 23.1224 153.613C23.1858 153.914 23.1303 154.264 22.956 154.66L16.7528 168.61C16.5786 169.006 16.3567 169.308 16.0873 169.515C15.8339 169.705 15.4853 169.8 15.0416 169.8ZM28.8714 169.848C28.0317 169.848 27.279 169.689 26.6135 169.372C25.9639 169.038 25.4489 168.594 25.0687 168.039C24.7043 167.483 24.522 166.857 24.522 166.158C24.522 165.301 24.7439 164.626 25.1875 164.135C25.6312 163.627 26.3521 163.262 27.3503 163.04C28.3485 162.817 29.6874 162.706 31.3669 162.706H32.5553V164.42H31.3907C30.4084 164.42 29.6241 164.468 29.0378 164.563C28.4515 164.658 28.0317 164.825 27.7781 165.063C27.5404 165.285 27.4216 165.602 27.4216 166.015C27.4216 166.539 27.6039 166.967 27.9682 167.301C28.3327 167.634 28.8397 167.801 29.4893 167.801C30.0122 167.801 30.4717 167.682 30.8678 167.443C31.2798 167.19 31.6046 166.848 31.8423 166.42C32.0799 165.991 32.1988 165.5 32.1988 164.944V162.206C32.1988 161.413 32.0245 160.841 31.6759 160.492C31.3273 160.144 30.7411 159.969 29.9171 159.969C29.4577 159.969 28.9586 160.025 28.4198 160.135C27.8969 160.246 27.3424 160.437 26.7561 160.707C26.4551 160.85 26.1857 160.889 25.948 160.826C25.7263 160.763 25.552 160.635 25.4252 160.445C25.2985 160.239 25.235 160.016 25.235 159.778C25.235 159.54 25.2985 159.31 25.4252 159.088C25.552 158.85 25.7659 158.675 26.0669 158.564C26.7958 158.263 27.4929 158.049 28.1584 157.922C28.8397 157.794 29.4577 157.731 30.0122 157.731C31.153 157.731 32.0879 157.906 32.8167 158.255C33.5614 158.604 34.116 159.136 34.4804 159.85C34.8448 160.548 35.027 161.453 35.027 162.563V168.277C35.027 168.768 34.9082 169.149 34.6705 169.419C34.4329 169.673 34.0923 169.8 33.6486 169.8C33.2049 169.8 32.8564 169.673 32.6028 169.419C32.3651 169.149 32.2463 168.768 32.2463 168.277V167.134H32.4364C32.3255 167.69 32.1037 168.173 31.771 168.586C31.4541 168.983 31.0501 169.292 30.5588 169.515C30.0677 169.737 29.5052 169.848 28.8714 169.848ZM31.2481 156.279C31.0897 156.501 30.8995 156.628 30.6777 156.66C30.4559 156.692 30.242 156.652 30.036 156.541C29.83 156.43 29.6795 156.271 29.5844 156.065C29.5052 155.859 29.529 155.628 29.6557 155.374L31.462 151.827C31.6046 151.526 31.7947 151.336 32.0324 151.256C32.2701 151.161 32.5157 151.145 32.7692 151.209C33.0227 151.272 33.2366 151.391 33.4109 151.566C33.601 151.74 33.712 151.955 33.7436 152.208C33.7912 152.446 33.7278 152.693 33.5535 152.946L31.2481 156.279ZM39.516 169.8C39.0407 169.8 38.6763 169.673 38.4227 169.419C38.1693 169.149 38.0425 168.768 38.0425 168.277V159.278C38.0425 158.787 38.1693 158.413 38.4227 158.16C38.6763 157.906 39.0328 157.779 39.4923 157.779C39.9518 157.779 40.3083 157.906 40.5618 158.16C40.8153 158.413 40.942 158.787 40.942 159.278V160.897L40.6806 160.302C41.0292 159.461 41.5679 158.826 42.2968 158.398C43.0415 157.954 43.8813 157.731 44.8161 157.731C45.7509 157.731 46.5194 157.906 47.1215 158.255C47.7236 158.604 48.1752 159.136 48.4762 159.85C48.7773 160.548 48.9278 161.436 48.9278 162.516V168.277C48.9278 168.768 48.801 169.149 48.5475 169.419C48.294 169.673 47.9295 169.8 47.4542 169.8C46.9789 169.8 46.6065 169.673 46.3372 169.419C46.0837 169.149 45.9569 168.768 45.9569 168.277V162.659C45.9569 161.754 45.7826 161.096 45.434 160.683C45.1013 160.27 44.5784 160.064 43.8654 160.064C42.994 160.064 42.2968 160.341 41.7739 160.897C41.2669 161.436 41.0133 162.159 41.0133 163.063V168.277C41.0133 169.292 40.5142 169.8 39.516 169.8ZM57.2453 169.848C56.0411 169.848 54.9953 169.602 54.1081 169.11C53.2207 168.618 52.5315 167.92 52.0403 167.015C51.5491 166.095 51.3036 165.015 51.3036 163.778C51.3036 162.841 51.4382 162.008 51.7076 161.278C51.9928 160.532 52.3968 159.897 52.9197 159.374C53.4426 158.834 54.0684 158.43 54.7973 158.16C55.5261 157.874 56.3422 157.731 57.2453 157.731C58.4495 157.731 59.4952 157.977 60.3826 158.469C61.2698 158.961 61.959 159.659 62.4503 160.564C62.9414 161.468 63.1871 162.54 63.1871 163.778C63.1871 164.714 63.0445 165.555 62.7593 166.301C62.4899 167.047 62.0938 167.69 61.5709 168.229C61.048 168.753 60.4221 169.157 59.6933 169.443C58.9644 169.713 58.1485 169.848 57.2453 169.848ZM57.2453 167.586C57.8315 167.586 58.3465 167.443 58.7902 167.158C59.2338 166.872 59.5745 166.452 59.8121 165.896C60.0656 165.325 60.1924 164.619 60.1924 163.778C60.1924 162.508 59.923 161.564 59.3843 160.945C58.8456 160.31 58.1326 159.993 57.2453 159.993C56.659 159.993 56.1441 160.135 55.7005 160.421C55.2568 160.691 54.9082 161.111 54.6547 161.683C54.417 162.238 54.2982 162.936 54.2982 163.778C54.2982 165.031 54.5675 165.983 55.1063 166.634C55.645 167.269 56.358 167.586 57.2453 167.586ZM71.0105 169.848C69.7904 169.848 68.7289 169.602 67.8257 169.11C66.9226 168.602 66.2254 167.888 65.7342 166.967C65.243 166.047 64.9974 164.968 64.9974 163.73C64.9974 162.793 65.1321 161.96 65.4015 161.23C65.6867 160.484 66.0907 159.858 66.6136 159.35C67.1365 158.826 67.7702 158.43 68.5149 158.16C69.2596 157.874 70.0914 157.731 71.0105 157.731C71.5334 157.731 72.0958 157.803 72.6979 157.945C73.3159 158.088 73.8942 158.326 74.433 158.659C74.6863 158.818 74.8526 159.008 74.9321 159.231C75.0116 159.453 75.0272 159.683 74.9796 159.921C74.9321 160.144 74.8289 160.341 74.6707 160.516C74.5281 160.675 74.3461 160.778 74.124 160.826C73.9021 160.858 73.6565 160.802 73.3872 160.659C73.0386 160.453 72.682 160.302 72.3177 160.207C71.9532 160.096 71.6047 160.04 71.2719 160.04C70.749 160.04 70.2895 160.127 69.8934 160.302C69.4973 160.46 69.1567 160.699 68.8715 161.016C68.6021 161.317 68.3961 161.698 68.2535 162.159C68.1109 162.619 68.0396 163.15 68.0396 163.754C68.0396 164.928 68.3169 165.857 68.8715 166.539C69.4419 167.205 70.242 167.539 71.2719 167.539C71.6047 167.539 71.9453 167.491 72.2939 167.396C72.6583 167.301 73.0227 167.15 73.3872 166.944C73.6565 166.801 73.8942 166.753 74.1002 166.801C74.3223 166.848 74.5043 166.959 74.6469 167.134C74.7895 167.292 74.8764 167.491 74.9083 167.729C74.9403 167.952 74.9083 168.173 74.8133 168.396C74.7338 168.618 74.5756 168.8 74.3379 168.943C73.815 169.261 73.2604 169.491 72.6742 169.634C72.0879 169.776 71.5334 169.848 71.0105 169.848ZM70.8441 156.85C70.4797 156.85 70.1549 156.755 69.8697 156.565C69.6003 156.359 69.3706 156.08 69.1804 155.731L67.4692 152.613C67.3266 152.359 67.2949 152.129 67.3741 151.923C67.4533 151.717 67.588 151.566 67.7782 151.47C67.9683 151.36 68.1663 151.319 68.3723 151.351C68.5941 151.383 68.7764 151.51 68.919 151.732L70.8441 154.732L72.7692 151.732C72.9118 151.51 73.0861 151.383 73.2921 151.351C73.5139 151.319 73.7199 151.36 73.9101 151.47C74.1002 151.566 74.2348 151.717 74.3142 151.923C74.3936 152.129 74.3617 152.359 74.219 152.613L72.5316 155.731C72.3414 156.08 72.1038 156.359 71.8186 156.565C71.5334 156.755 71.2085 156.85 70.8441 156.85ZM78.3234 169.8C77.848 169.8 77.4834 169.673 77.2301 169.419C76.9761 169.149 76.8498 168.768 76.8498 168.277V159.278C76.8498 158.787 76.9761 158.413 77.2301 158.16C77.4834 157.906 77.8399 157.779 78.2996 157.779C78.7586 157.779 79.1151 157.906 79.3691 158.16C79.6224 158.413 79.7494 158.787 79.7494 159.278V160.897L79.4879 160.302C79.8363 159.461 80.3747 158.826 81.1041 158.398C81.8483 157.954 82.6883 157.731 83.6234 157.731C84.5577 157.731 85.3265 157.906 85.9288 158.255C86.5304 158.604 86.982 159.136 87.2835 159.85C87.5843 160.548 87.7351 161.436 87.7351 162.516V168.277C87.7351 168.768 87.6081 169.149 87.3548 169.419C87.1008 169.673 86.7369 169.8 86.2615 169.8C85.7862 169.8 85.4134 169.673 85.1445 169.419C84.8905 169.149 84.7642 168.768 84.7642 168.277V162.659C84.7642 161.754 84.5897 161.096 84.2413 160.683C83.9086 160.27 83.3857 160.064 82.6727 160.064C81.8008 160.064 81.1041 160.341 80.5812 160.897C80.074 161.436 79.8207 162.159 79.8207 163.063V168.277C79.8207 169.292 79.3216 169.8 78.3234 169.8ZM92.2256 169.776C91.7502 169.776 91.3863 169.634 91.1323 169.348C90.879 169.062 90.752 168.666 90.752 168.158V159.421C90.752 158.898 90.879 158.501 91.1323 158.231C91.3863 157.945 91.7502 157.803 92.2256 157.803C92.7009 157.803 93.0656 157.945 93.3188 158.231C93.5885 158.501 93.7229 158.898 93.7229 159.421V168.158C93.7229 168.666 93.5966 169.062 93.3426 169.348C93.0893 169.634 92.7172 169.776 92.2256 169.776ZM93.3426 156.279C93.1844 156.501 92.9943 156.628 92.7722 156.66C92.5509 156.692 92.337 156.652 92.1305 156.541C91.9248 156.43 91.774 156.271 91.6789 156.065C91.6002 155.859 91.624 155.628 91.7502 155.374L93.5565 151.827C93.6991 151.526 93.8893 151.336 94.1269 151.256C94.3646 151.161 94.6104 151.145 94.8637 151.209C95.1177 151.272 95.3316 151.391 95.5054 151.566C95.6955 151.74 95.807 151.955 95.8382 152.208C95.8857 152.446 95.8226 152.693 95.648 152.946L93.3426 156.279ZM108.586 169.848C107.556 169.848 106.693 169.673 105.996 169.324C105.314 168.975 104.807 168.467 104.474 167.801C104.142 167.118 103.975 166.277 103.975 165.277V160.207H102.739C102.359 160.207 102.066 160.112 101.86 159.921C101.654 159.715 101.551 159.437 101.551 159.088C101.551 158.723 101.654 158.445 101.86 158.255C102.066 158.064 102.359 157.969 102.739 157.969H103.975V155.803C103.975 155.311 104.102 154.938 104.356 154.684C104.625 154.43 104.997 154.303 105.473 154.303C105.948 154.303 106.313 154.43 106.566 154.684C106.819 154.938 106.946 155.311 106.946 155.803V157.969H109.466C109.846 157.969 110.139 158.064 110.345 158.255C110.551 158.445 110.654 158.723 110.654 159.088C110.654 159.437 110.551 159.715 110.345 159.921C110.139 160.112 109.846 160.207 109.466 160.207H106.946V165.111C106.946 165.872 107.113 166.444 107.445 166.825C107.778 167.205 108.317 167.396 109.062 167.396C109.331 167.396 109.569 167.372 109.775 167.324C109.98 167.277 110.163 167.245 110.321 167.229C110.511 167.214 110.669 167.277 110.797 167.42C110.924 167.547 110.987 167.816 110.987 168.229C110.987 168.547 110.931 168.832 110.82 169.086C110.725 169.324 110.543 169.491 110.274 169.586C110.068 169.649 109.798 169.705 109.466 169.753C109.133 169.816 108.839 169.848 108.586 169.848ZM113.905 169.8C113.414 169.8 113.034 169.673 112.764 169.419C112.511 169.149 112.384 168.768 112.384 168.277V159.278C112.384 158.787 112.511 158.413 112.764 158.16C113.018 157.906 113.374 157.779 113.833 157.779C114.293 157.779 114.65 157.906 114.903 158.16C115.157 158.413 115.283 158.787 115.283 159.278V160.778H115.046C115.268 159.826 115.704 159.104 116.353 158.612C117.003 158.12 117.866 157.826 118.943 157.731C119.276 157.699 119.538 157.787 119.728 157.993C119.934 158.183 120.053 158.485 120.084 158.898C120.116 159.294 120.021 159.62 119.799 159.874C119.593 160.112 119.276 160.254 118.848 160.302L118.325 160.35C117.359 160.445 116.631 160.746 116.139 161.254C115.648 161.746 115.402 162.444 115.402 163.349V168.277C115.402 168.768 115.276 169.149 115.022 169.419C114.769 169.673 114.396 169.8 113.905 169.8ZM123.165 169.8C122.69 169.8 122.325 169.673 122.072 169.419C121.818 169.149 121.691 168.768 121.691 168.277V154.137C121.691 153.645 121.818 153.271 122.072 153.018C122.325 152.764 122.69 152.637 123.165 152.637C123.64 152.637 124.004 152.764 124.258 153.018C124.527 153.271 124.662 153.645 124.662 154.137V160.302H124.33C124.678 159.461 125.216 158.826 125.946 158.398C126.69 157.954 127.53 157.731 128.465 157.731C129.399 157.731 130.168 157.906 130.77 158.255C131.372 158.604 131.824 159.136 132.125 159.85C132.426 160.548 132.577 161.436 132.577 162.516V168.277C132.577 168.768 132.45 169.149 132.196 169.419C131.942 169.673 131.579 169.8 131.103 169.8C130.628 169.8 130.255 169.673 129.986 169.419C129.732 169.149 129.606 168.768 129.606 168.277V162.659C129.606 161.754 129.431 161.096 129.083 160.683C128.75 160.27 128.227 160.064 127.514 160.064C126.642 160.064 125.946 160.341 125.423 160.897C124.916 161.436 124.662 162.159 124.662 163.063V168.277C124.662 169.292 124.163 169.8 123.165 169.8ZM138.425 174.085C138.077 174.085 137.791 173.99 137.569 173.799C137.347 173.625 137.213 173.387 137.165 173.085C137.133 172.784 137.189 172.466 137.332 172.133L138.948 168.539V169.776L134.622 159.755C134.48 159.406 134.432 159.08 134.48 158.779C134.527 158.477 134.67 158.239 134.907 158.064C135.161 157.874 135.502 157.779 135.929 157.779C136.294 157.779 136.587 157.866 136.809 158.041C137.031 158.199 137.228 158.508 137.403 158.969L140.611 166.991H139.898L143.178 158.945C143.353 158.501 143.559 158.199 143.796 158.041C144.034 157.866 144.351 157.779 144.747 157.779C145.095 157.779 145.373 157.874 145.579 158.064C145.784 158.239 145.911 158.477 145.959 158.779C146.007 159.064 145.951 159.382 145.793 159.731L140.017 172.942C139.812 173.387 139.589 173.689 139.352 173.847C139.114 174.005 138.805 174.085 138.425 174.085Z" fill="white"/>
<path d="M127.266 62.8056C128.436 62.8056 129.607 62.4981 130.645 61.8686C132.664 60.6681 133.864 58.5453 133.864 56.1883C133.864 53.8312 132.533 51.5181 130.396 50.3616L103.314 35.7508C103.972 34.6528 104.382 33.3792 104.382 32.0176C104.382 27.9916 101.104 24.7123 97.08 24.7123C94.1982 24.7123 91.7109 26.4105 90.5255 28.8554L74.1965 20.0421C73.5527 19.6908 72.7626 19.6908 72.1188 20.0421L33.6378 40.8163C32.4673 38.3568 29.9653 36.6292 27.0683 36.6292C23.0446 36.6292 19.7671 39.9086 19.7671 43.9346C19.7671 45.3254 20.1768 46.5991 20.8499 47.7117L15.919 50.3762C13.7828 51.5328 12.4514 53.758 12.4514 56.2029C12.4514 58.6478 13.6511 60.6828 15.6703 61.8832C17.3822 62.908 19.3867 63.0837 21.2303 62.4396V94.7352H14.6461C13.4317 94.7352 12.4514 95.7164 12.4514 96.9312V104.251C12.4514 105.467 13.4317 106.447 14.6461 106.447H19.7671V131.775C19.7671 132.99 20.7474 133.971 21.9619 133.971H124.368C125.583 133.971 126.563 132.99 126.563 131.775V106.447H131.684C132.898 106.447 133.879 105.467 133.879 104.251V96.9312C133.879 95.7164 132.898 94.7352 131.684 94.7352H125.1V62.4396C125.802 62.6884 126.534 62.8202 127.266 62.8202V62.8056ZM97.0659 29.0896C98.6753 29.0896 99.9773 30.3926 99.9773 32.003C99.9773 33.6134 98.6753 34.9164 97.0659 34.9164C95.4564 34.9164 94.1537 33.6134 94.1537 32.003C94.1537 30.3926 95.4564 29.0896 97.0659 29.0896ZM27.0536 41.0066C28.6631 41.0066 29.9653 42.3096 29.9653 43.92C29.9653 45.5304 28.6631 46.8333 27.0536 46.8333C25.4442 46.8333 24.142 45.5304 24.142 43.92C24.142 42.3096 25.4442 41.0066 27.0536 41.0066ZM122.173 129.564H24.142V111.411C26.4684 114.016 29.702 116.52 33.7403 116.827C34.0183 116.842 34.2817 116.857 34.5597 116.857C38.9784 116.857 43.3386 114.177 47.5525 108.892C49.8203 112.157 53.7709 116.417 59.126 116.813C59.404 116.827 59.6674 116.842 59.9454 116.842C64.3641 116.842 68.7243 114.163 72.9382 108.878C75.2062 112.143 79.1567 116.403 84.5117 116.798C84.7895 116.813 85.0531 116.827 85.3309 116.827C89.7501 116.827 94.1098 114.148 98.324 108.863C100.592 112.128 104.542 116.388 109.898 116.783C110.176 116.798 110.439 116.813 110.717 116.813C114.609 116.813 118.442 114.734 122.188 110.649V129.52L122.173 129.564ZM25.7953 106.433H43.8946C41.1292 109.8 37.6616 112.699 34.0769 112.45C30.4629 112.186 27.5511 108.965 25.7953 106.433ZM51.1811 106.433H69.2803C66.5149 109.8 63.0473 112.699 59.4625 112.45C55.8485 112.186 52.9369 108.965 51.1811 106.433ZM76.5668 106.433H94.6661C91.9151 109.8 88.4473 112.699 84.8481 112.45C81.2341 112.186 78.3226 108.965 76.5668 106.433ZM101.953 106.433H120.066C117.316 109.8 113.848 112.699 110.234 112.45C106.62 112.186 103.709 108.965 101.953 106.433ZM129.504 99.1131V102.041H16.8262V99.1131H129.489H129.504ZM113.409 77.6946V62.2785H120.725V94.7352H113.409V90.2852C115.574 89.0109 117.052 86.6832 117.052 84.0044C117.052 81.3249 115.574 78.9831 113.409 77.7237V77.6946ZM111.112 57.8865H29.8336L73.1577 34.5064L116.482 57.8865H111.097H111.112ZM39.9587 72.058C40.2659 72.7754 40.2806 73.566 40.0026 74.2833C39.7099 75.001 39.1686 75.5716 38.4516 75.8937C36.9738 76.5379 35.2619 75.8646 34.6182 74.3858C33.9744 72.9072 34.6474 71.1943 36.1252 70.5501C37.5884 69.906 39.3149 70.5794 39.9587 72.058ZM37.2226 65.9239V62.2932H48.0499V66.2313C48.0499 68.6323 46.4698 70.638 44.319 71.3553C44.2312 71.004 44.1287 70.6526 43.9824 70.3012C42.7826 67.5343 40.0611 65.8946 37.2226 65.9239ZM37.325 80.5349C38.2907 80.5349 39.2564 80.3444 40.1928 79.9345C41.9778 79.1586 43.3386 77.7385 44.0555 75.9375C46.5429 75.5716 48.723 74.2833 50.2301 72.424C52.0298 74.635 54.7658 76.0551 57.8384 76.0551C60.9111 76.0551 63.6472 74.635 65.4469 72.424C67.2466 74.635 69.9826 76.0551 73.0553 76.0551C76.1279 76.0551 78.8641 74.635 80.6637 72.424C82.4633 74.635 85.1994 76.0551 88.2721 76.0551C91.3447 76.0551 94.0809 74.635 95.8805 72.424C97.6801 74.635 100.416 76.0551 103.489 76.0551C105.537 76.0551 107.439 75.425 109.005 74.3419V76.7722C105.332 77.1531 102.436 80.2269 102.436 84.0044C102.436 87.7812 105.332 90.8707 109.005 91.2366V94.7501H37.3104V80.5349H37.325ZM52.4394 66.2313V62.2932H63.2668V66.2313C63.2668 69.2179 60.838 71.6481 57.8531 71.6481C54.8683 71.6481 52.4394 69.2179 52.4394 66.2313ZM67.6563 66.2313V62.2932H78.4838V66.2313C78.4838 69.2179 76.0551 71.6481 73.07 71.6481C70.0851 71.6481 67.6563 69.2179 67.6563 66.2313ZM82.8733 66.2313V62.2932H93.7006V66.2313C93.7006 69.2179 91.2719 71.6481 88.2869 71.6481C85.3019 71.6481 82.8733 69.2179 82.8733 66.2313ZM98.0901 66.2313V62.2932H108.917V66.2313C108.917 69.2179 106.489 71.6481 103.504 71.6481C100.519 71.6481 98.0901 69.2179 98.0901 66.2313ZM106.839 83.9895C106.839 82.379 108.142 81.0764 109.751 81.0764C111.361 81.0764 112.663 82.379 112.663 83.9895C112.663 85.6001 111.361 86.9027 109.751 86.9027C108.142 86.9027 106.839 85.6001 106.839 83.9895ZM32.8331 62.2785V66.2167C32.8331 66.612 32.8624 66.9926 32.9063 67.3732C30.258 69.3643 29.2045 72.9657 30.5799 76.128C31.1066 77.3428 31.9406 78.324 32.9355 79.056V94.7211H25.6198V62.2639H32.8331V62.2785ZM74.2259 30.0852C73.5821 29.7338 72.792 29.7338 72.1482 30.0852L20.1037 58.1354C19.0941 58.6771 18.2308 58.2818 17.9089 58.0915C17.587 57.9012 16.8262 57.3156 16.8262 56.1883C16.8262 55.3684 17.2798 54.6218 17.9967 54.2265L24.4639 50.7422C25.2686 51.0496 26.1465 51.24 27.0536 51.24C30.536 51.24 33.4623 48.7804 34.1792 45.5011L73.1577 24.4634L89.9254 33.5109C90.628 36.8196 93.5543 39.3084 97.0659 39.3084C98.0024 39.3084 98.8944 39.118 99.7137 38.796L128.304 54.2265C129.021 54.6218 129.474 55.3684 129.474 56.1883C129.474 57.3302 128.714 57.9012 128.392 58.0915C128.07 58.2818 127.207 58.6771 126.197 58.1354L74.1965 30.0705L74.2259 30.0852Z" fill="white"/>
<path d="M110.951 24.8588C110.951 28.8848 114.229 32.1642 118.252 32.1642C122.276 32.1642 125.554 28.8848 125.554 24.8588C125.554 20.8328 122.276 17.5534 118.252 17.5534C114.229 17.5534 110.951 20.8328 110.951 24.8588ZM121.164 24.8588C121.164 26.4692 119.861 27.7722 118.252 27.7722C116.642 27.7722 115.34 26.4692 115.34 24.8588C115.34 23.2484 116.642 21.9454 118.252 21.9454C119.861 21.9454 121.164 23.2484 121.164 24.8588Z" fill="white"/>
<path d="M62.0817 47.6824C62.0817 51.7084 65.3592 54.9878 69.3829 54.9878C73.4066 54.9878 76.6842 51.7084 76.6842 47.6824C76.6842 43.6564 73.4066 40.377 69.3829 40.377C65.3592 40.377 62.0817 43.6564 62.0817 47.6824ZM72.2946 47.6824C72.2946 49.2928 70.9923 50.5958 69.3829 50.5958C67.7734 50.5958 66.4712 49.2928 66.4712 47.6824C66.4712 46.072 67.7734 44.769 69.3829 44.769C70.9923 44.769 72.2946 46.072 72.2946 47.6824Z" fill="white"/>
<path d="M48.7669 12.9565C46.9526 12.2391 44.9627 12.283 43.1777 13.0589C41.3926 13.8349 40.0173 15.2696 39.3003 17.0849C38.5834 18.9003 38.6273 20.8913 39.4027 22.6774C40.6025 25.4297 43.2947 27.0694 46.104 27.0694C47.0843 27.0694 48.0646 26.8791 49.0157 26.4545C52.7028 24.8441 54.4001 20.5253 52.7906 16.8361C52.0151 15.05 50.5812 13.6738 48.7669 12.9565ZM48.8108 20.8181C48.5328 21.5501 47.9768 22.1065 47.2599 22.4285C45.7821 23.0727 44.0702 22.3993 43.4264 20.9206C43.1192 20.2033 43.1045 19.4127 43.3825 18.6954C43.6752 17.9634 44.2165 17.407 44.9335 17.0849C45.2993 16.9239 45.6943 16.8361 46.0894 16.8361C46.4551 16.8361 46.8063 16.9093 47.1575 17.041C47.8744 17.3192 48.445 17.8755 48.7669 18.5929C49.0742 19.3102 49.0888 20.1008 48.8108 20.8181Z" fill="white"/>
</svg>
